<?xml version="1.0" standalone="no"?>
<!DOCTYPE svg PUBLIC "-//W3C//DTD SVG 20010904//EN"
 "http://www.w3.org/TR/2001/REC-SVG-20010904/DTD/svg10.dtd">
<svg version="1.0" xmlns="http://www.w3.org/2000/svg"
 width="100.000000pt" height="100.000000pt" viewBox="0 0 100.000000 100.000000"
 preserveAspectRatio="xMidYMid meet">

<g transform="translate(0.000000,100.000000) scale(0.100000,-0.100000)"
fill="#000000" stroke="none">
<path d="M677 976 c-139 -59 -177 -123 -144 -249 10 -37 28 -62 80 -115 60
-61 74 -69 127 -81 111 -25 167 4 222 117 26 53 33 78 33 128 0 34 -4 66 -8
70 -4 4 -39 -23 -77 -61 l-70 -70 -62 63 -63 62 70 70 c38 38 66 72 63 75 -3
4 -30 8 -59 11 -42 4 -67 -1 -112 -20z"/>
<path d="M276 806 c-50 -19 -231 -195 -257 -251 -45 -97 -17 -170 124 -313
138 -141 168 -155 226 -106 20 16 37 23 49 19 31 -9 73 13 85 45 9 25 17 30
43 30 32 0 74 37 74 64 0 7 15 12 36 12 45 0 84 40 84 86 0 27 -19 51 -132
164 -110 112 -129 136 -119 148 10 12 10 21 -1 42 -28 59 -135 88 -212 60z"/>
<path d="M35 225 c-55 -71 -39 -159 37 -205 55 -33 118 -22 174 31 l22 20 -95
92 c-52 51 -98 93 -103 95 -4 2 -20 -13 -35 -33z"/>
</g>
</svg>
