<?xml version="1.0" standalone="no"?>
<!DOCTYPE svg PUBLIC "-//W3C//DTD SVG 20010904//EN"
 "http://www.w3.org/TR/2001/REC-SVG-20010904/DTD/svg10.dtd">
<svg version="1.0" xmlns="http://www.w3.org/2000/svg"
 width="96.000000pt" height="96.000000pt" viewBox="0 0 96.000000 96.000000"
 preserveAspectRatio="xMidYMid meet">

<g transform="translate(0.000000,96.000000) scale(0.100000,-0.100000)"
fill="#000000" stroke="none">
<path d="M416 785 c-57 -43 -62 -45 -127 -45 -63 0 -72 -3 -125 -40 -32 -22
-50 -40 -41 -40 10 0 17 -4 17 -10 0 -6 33 -10 80 -10 44 0 80 4 80 8 0 17
179 144 192 136 35 -21 168 -128 168 -136 0 -4 36 -8 80 -8 47 0 80 4 80 10 0
6 7 10 17 10 9 0 -9 18 -41 40 -53 37 -62 40 -125 40 -65 0 -70 2 -127 45 -32
24 -61 44 -64 44 -3 0 -32 -20 -64 -44z"/>
<path d="M468 624 c-5 -4 -8 -27 -8 -51 l0 -43 38 1 c29 2 31 3 10 6 -24 4
-27 9 -30 50 -2 24 -6 41 -10 37z"/>
<path d="M160 545 l0 -55 55 0 55 0 0 55 0 55 -55 0 -55 0 0 -55z"/>
<path d="M690 545 l0 -55 55 0 55 0 0 55 0 55 -55 0 -55 0 0 -55z"/>
<path d="M160 385 l0 -55 55 0 55 0 0 55 0 55 -55 0 -55 0 0 -55z"/>
<path d="M690 385 l0 -55 55 0 55 0 0 55 0 55 -55 0 -55 0 0 -55z"/>
<path d="M423 335 l-58 -43 3 -81 4 -81 108 0 108 0 4 80 3 81 -57 44 -56 44
-59 -44z"/>
<path d="M167 283 c-4 -3 -7 -30 -7 -60 l0 -53 55 0 55 0 0 60 0 60 -48 0
c-27 0 -52 -3 -55 -7z"/>
<path d="M690 230 l0 -60 55 0 55 0 0 60 0 60 -55 0 -55 0 0 -60z"/>
</g>
</svg>
